<?xml version="1.0" encoding="UTF-8" standalone="no"?>
<!-- Created with Inkscape (http://www.inkscape.org/) -->

<svg
   width="512mm"
   height="512mm"
   viewBox="0 0 512 512"
   version="1.1"
   id="svg1"
   xmlns="http://www.w3.org/2000/svg"
   xmlns:svg="http://www.w3.org/2000/svg">
  <defs
     id="defs1" />
  <path
     style="color:#000000;fill:#ffffff;stroke-width:1.26459;stroke-linecap:round;stroke-linejoin:round;-inkscape-stroke:none"
     d="m 256,-65.208984 c -37.40886,-4.87e-4 -67.73486,30.32551 -67.73438,67.7343746 V 169.75794 a 18.507676,18.507676 135 0 1 -18.50768,18.50768 H 0 C -37.408865,188.26514 -67.734862,218.59114 -67.734375,256 -67.734857,293.40886 -37.408861,323.73485 0,323.73437 h 169.75794 a 18.507676,18.507676 45 0 1 18.50768,18.50768 v 172.28334 c 6e-4,37.4081 30.32628,67.73291 67.73438,67.73242 37.4081,4.8e-4 67.73377,-30.32432 67.73437,-67.73242 V 342.24205 a 18.507676,18.507676 135 0 1 18.50768,-18.50768 H 512 C 549.40886,323.73485 579.73485,293.40886 579.73437,256 579.73486,218.59114 549.40886,188.26514 512,188.26562 H 342.24205 A 18.507676,18.507676 45 0 1 323.73437,169.75794 V 2.5253906 C 323.73485,-34.88347 293.40886,-65.209466 256,-65.208984 Z"
     id="path2"
     transform="matrix(0.79077176,0,0,0.79077176,53.56243,51.566194)" />
</svg>
